<?xml version="1.0" standalone="no"?>
<!DOCTYPE svg PUBLIC "-//W3C//DTD SVG 20010904//EN"
 "http://www.w3.org/TR/2001/REC-SVG-20010904/DTD/svg10.dtd">
<svg version="1.0" xmlns="http://www.w3.org/2000/svg"
 width="307.000000pt" height="307.000000pt" viewBox="0 0 307.000000 307.000000"
 preserveAspectRatio="xMidYMid meet">
<metadata>
Created by potrace 1.14, written by Peter Selinger 2001-2017
</metadata>
<g transform="translate(0.000000,307.000000) scale(0.100000,-0.100000)"
fill="#000000" stroke="none">
<path d="M1355 3060 c-96 -14 -130 -21 -190 -36 -390 -99 -724 -343 -934 -681
-41 -67 -121 -224 -121 -238 0 -2 -5 -16 -12 -32 -6 -15 -12 -30 -13 -33 -1
-3 -11 -36 -22 -75 -12 -38 -26 -95 -32 -125 -6 -30 -13 -68 -17 -85 -13 -61
-11 -373 3 -447 7 -40 15 -82 17 -93 49 -261 205 -550 411 -759 213 -217 534
-386 820 -432 20 -3 47 -8 59 -11 40 -9 331 -11 394 -2 144 21 225 40 337 81
95 35 283 126 305 148 3 3 34 25 69 49 116 81 252 214 339 333 201 276 301
581 300 915 -3 739 -514 1359 -1242 1505 -108 22 -375 32 -471 18z"/>
</g>
</svg>
